HIERARCHY
ROOT pelvis
{
  OFFSET 0 100 0
  CHANNELS 6 Xposition Yposition Zposition Zrotation Xrotation Yrotation
  JOINT pelvis_right_femur
  {
    OFFSET -10.78128 -3.44521 -0.5502486
    CHANNELS 3 Zrotation Xrotation Yrotation
    JOINT right_femur_tibia
    {
      OFFSET -0.8047443 -44.0398 -0.1307829
      CHANNELS 3 Zrotation Xrotation Yrotation
      JOINT right_tibia_foot
      {
        OFFSET 3.006224 -47.83518 -5
        CHANNELS 3 Zrotation Xrotation Yrotation
        End Site
        {
          OFFSET 0 -5 15
        }
      }
    }
  }
  JOINT pelvis_left_femur
  {
    OFFSET 10.78128 -3.44521 -0.5502486
    CHANNELS 3 Zrotation Xrotation Yrotation
    JOINT left_femur_tibia
    {
      OFFSET 0.8047443 -44.0398 -0.1307829
      CHANNELS 3 Zrotation Xrotation Yrotation
      JOINT left_tibia_foot
      {
        OFFSET -4.370144 -48.10324 -4.275266
        CHANNELS 3 Zrotation Xrotation Yrotation
        End Site
        {
          OFFSET 0 -5 15
        }
      }
    }
  }
  JOINT pelvis_spine1
  {
    OFFSET 0 6.468898 -3.129235
    CHANNELS 3 Zrotation Xrotation Yrotation
    JOINT spine1
    {
      OFFSET 0 23.15396 4.99043
      CHANNELS 3 Zrotation Xrotation Yrotation
      JOINT spine2
      {
        OFFSET 0 20.79997 -5.064912
        CHANNELS 3 Zrotation Xrotation Yrotation
        JOINT neck
        {
          OFFSET 0 14.38658 9.616178
          CHANNELS 3 Zrotation Xrotation Yrotation
          End Site
          {
            OFFSET 0 20 0
          }
        }
      }
      JOINT right_manubrium
      {
        OFFSET -5.722621 16.35077 3.967754
        CHANNELS 3 Zrotation Xrotation Yrotation
        JOINT right_clavicle
        {
          OFFSET -13.16364 1.694482 -4.693211
          CHANNELS 3 Zrotation Xrotation Yrotation
          JOINT right_humerus
          {
            OFFSET -28.5034 -0.3100689 -2.792744
            CHANNELS 3 Zrotation Xrotation Yrotation
            JOINT right_radius
            {
              OFFSET -25.15693 0.02248979 -1.271978
              CHANNELS 3 Zrotation Xrotation Yrotation
              End Site
              {
                OFFSET -15 0 0
              }
            }
          }
        }
      }
      JOINT left_manubrium
      {
        OFFSET 5.722621 16.35077 3.967754
        CHANNELS 3 Zrotation Xrotation Yrotation
        JOINT left_clavicle
        {
          OFFSET 13.16364 1.694482 -4.693211
          CHANNELS 3 Zrotation Xrotation Yrotation
          JOINT left_humerus
          {
            OFFSET 29.39168 -1.063119 -2.237045
            CHANNELS 3 Zrotation Xrotation Yrotation
            JOINT left_radius
            {
              OFFSET 24.59957 -0.9528479 0.9047498
              CHANNELS 3 Zrotation Xrotation Yrotation
              End Site
              {
                OFFSET 15 -0 -0
              }
            }
          }
        }
      }
    }
  }
}
MOTION
Frames: 19
Frame Time: 0.0416666666667
-198.0325 113.0713 -245.9309 5.524166 -6.646483 40.42752 3.635387 12.99284 -1.247137 -0 16.3405 -0 -12.88685 -7.341502 0.6086813 2.238013 -17.18395 -4.918204 -0 13.32012 -0 0.38179 -2.391949 17.34206 0.34764 -1.410344 7.266503 -0.487 13.56761 -4.754856 0.3329158 20.85299 4.713571 4.454294 -16.14544 3.23418 0.4730531 -26.85472 12.20748 85.34742 23.84195 -8.381249 -0 0 25.32236 -23.63292 10.66243 12.25352 4.826702 -21.94912 -7.14837 -93.87744 7.037292 31.59793 0 0 -1.163935 11.8968 12.93731 -3.439001
-193.1958 113.0521 -242.1004 5.447282 -6.709547 39.76639 3.635387 12.99284 -1.247137 -0 16.3405 -0 -12.88685 -7.341502 0.6086813 2.238013 -17.18395 -4.918204 -0 13.32012 -0 0.38179 -2.391949 17.34206 0.34764 -1.410344 7.266503 -0.487 13.56761 -4.754856 0.3329158 20.85299 4.713571 4.454294 -16.14544 3.23418 0.4730531 -26.85472 12.20748 85.34742 23.84195 -8.381249 -0 0 25.32236 -23.63292 10.66243 12.25352 4.826702 -21.94912 -7.14837 -93.87744 7.037292 31.59793 0 0 -1.163935 11.8968 12.93731 -3.439001
-188.4036 113.033 -238.2145 5.369661 -6.771725 39.10509 3.635387 12.99284 -1.247137 -0 16.3405 -0 -12.88685 -7.341502 0.6086813 2.238013 -17.18395 -4.918204 -0 13.32012 -0 0.38179 -2.391949 17.34206 0.34764 -1.410344 7.266503 -0.487 13.56761 -4.754856 0.3329158 20.85299 4.713571 4.454294 -16.14544 3.23418 0.4730531 -26.85472 12.20748 85.34742 23.84195 -8.381249 -0 0 25.32236 -23.63292 10.66243 12.25352 4.826702 -21.94912 -7.14837 -93.87744 7.037292 31.59793 0 0 -1.163935 11.8968 12.93731 -3.439001
-183.6564 113.0138 -234.2737 5.291313 -6.833008 38.44362 3.635387 12.99284 -1.247137 -0 16.3405 -0 -12.88685 -7.341502 0.6086813 2.238013 -17.18395 -4.918204 -0 13.32012 -0 0.38179 -2.391949 17.34206 0.34764 -1.410344 7.266503 -0.487 13.56761 -4.754856 0.3329158 20.85299 4.713571 4.454294 -16.14544 3.23418 0.4730531 -26.85472 12.20748 85.34742 23.84195 -8.381249 -0 0 25.32236 -23.63292 10.66243 12.25352 4.826702 -21.94912 -7.14837 -93.87744 7.037292 31.59793 0 0 -1.163935 11.8968 12.93731 -3.439001
-178.9549 112.9946 -230.2785 5.212247 -6.89339 37.78198 3.635387 12.99284 -1.247137 -0 16.3405 -0 -12.88685 -7.341502 0.6086813 2.238013 -17.18395 -4.918204 -0 13.32012 -0 0.38179 -2.391949 17.34206 0.34764 -1.410344 7.266503 -0.487 13.56761 -4.754856 0.3329158 20.85299 4.713571 4.454294 -16.14544 3.23418 0.4730531 -26.85472 12.20748 85.34742 23.84195 -8.381249 -0 0 25.32236 -23.63292 10.66243 12.25352 4.826702 -21.94912 -7.14837 -93.87744 7.037292 31.59793 0 0 -1.163935 11.8968 12.93731 -3.439001
-174.2997 112.9755 -226.2294 5.132473 -6.952861 37.12017 3.635387 12.99284 -1.247137 -0 16.3405 -0 -12.88685 -7.341502 0.6086813 2.238013 -17.18395 -4.918204 -0 13.32012 -0 0.38179 -2.391949 17.34206 0.34764 -1.410344 7.266503 -0.487 13.56761 -4.754856 0.3329158 20.85299 4.713571 4.454294 -16.14544 3.23418 0.4730531 -26.85472 12.20748 85.34742 23.84195 -8.381249 -0 0 25.32236 -23.63292 10.66243 12.25352 4.826702 -21.94912 -7.14837 -93.87744 7.037292 31.59793 0 0 -1.163935 11.8968 12.93731 -3.439001
-169.6915 112.9563 -222.127 5.052003 -7.011413 36.4582 3.635387 12.99284 -1.247137 -0 16.3405 -0 -12.88685 -7.341502 0.6086813 2.238013 -17.18395 -4.918204 -0 13.32012 -0 0.38179 -2.391949 17.34206 0.34764 -1.410344 7.266503 -0.487 13.56761 -4.754856 0.3329158 20.85299 4.713571 4.454294 -16.14544 3.23418 0.4730531 -26.85472 12.20748 85.34742 23.84195 -8.381249 -0 0 25.32236 -23.63292 10.66243 12.25352 4.826702 -21.94912 -7.14837 -93.87744 7.037292 31.59793 0 0 -1.163935 11.8968 12.93731 -3.439001
-165.1307 112.9372 -217.9718 4.970847 -7.069039 35.79607 3.635387 12.99284 -1.247137 -0 16.3405 -0 -12.88685 -7.341502 0.6086813 2.238013 -17.18395 -4.918204 -0 13.32012 -0 0.38179 -2.391949 17.34206 0.34764 -1.410344 7.266503 -0.487 13.56761 -4.754856 0.3329158 20.85299 4.713571 4.454294 -16.14544 3.23418 0.4730531 -26.85472 12.20748 85.34742 23.84195 -8.381249 -0 0 25.32236 -23.63292 10.66243 12.25352 4.826702 -21.94912 -7.14837 -93.87744 7.037292 31.59793 0 0 -1.163935 11.8968 12.93731 -3.439001
-160.6182 112.918 -213.7644 4.889014 -7.125729 35.13376 3.635387 12.99284 -1.247137 -0 16.3405 -0 -12.88685 -7.341502 0.6086813 2.238013 -17.18395 -4.918204 -0 13.32012 -0 0.38179 -2.391949 17.34206 0.34764 -1.410344 7.266503 -0.487 13.56761 -4.754856 0.3329158 20.85299 4.713571 4.454294 -16.14544 3.23418 0.4730531 -26.85472 12.20748 85.34742 23.84195 -8.381249 -0 0 25.32236 -23.63292 10.66243 12.25352 4.826702 -21.94912 -7.14837 -93.87744 7.037292 31.59793 0 0 -1.163935 11.8968 12.93731 -3.439001
-156.1543 112.8989 -209.5053 4.806517 -7.181477 34.4713 3.635387 12.99284 -1.247137 -0 16.3405 -0 -12.88685 -7.341502 0.6086813 2.238013 -17.18395 -4.918204 -0 13.32012 -0 0.38179 -2.391949 17.34206 0.34764 -1.410344 7.266503 -0.487 13.56761 -4.754856 0.3329158 20.85299 4.713571 4.454294 -16.14544 3.23418 0.4730531 -26.85472 12.20748 85.34742 23.84195 -8.381249 -0 0 25.32236 -23.63292 10.66243 12.25352 4.826702 -21.94912 -7.14837 -93.87744 7.037292 31.59793 0 0 -1.163935 11.8968 12.93731 -3.439001
-151.7398 112.8797 -205.1951 4.723365 -7.236275 33.80868 3.635387 12.99284 -1.247137 -0 16.3405 -0 -12.88685 -7.341502 0.6086813 2.238013 -17.18395 -4.918204 -0 13.32012 -0 0.38179 -2.391949 17.34206 0.34764 -1.410344 7.266503 -0.487 13.56761 -4.754856 0.3329158 20.85299 4.713571 4.454294 -16.14544 3.23418 0.4730531 -26.85472 12.20748 85.34742 23.84195 -8.381249 -0 0 25.32236 -23.63292 10.66243 12.25352 4.826702 -21.94912 -7.14837 -93.87744 7.037292 31.59793 0 0 -1.163935 11.8968 12.93731 -3.439001
-147.3752 112.8605 -200.8344 4.63957 -7.290115 33.14589 3.635387 12.99284 -1.247137 -0 16.3405 -0 -12.88685 -7.341502 0.6086813 2.238013 -17.18395 -4.918204 -0 13.32012 -0 0.38179 -2.391949 17.34206 0.34764 -1.410344 7.266503 -0.487 13.56761 -4.754856 0.3329158 20.85299 4.713571 4.454294 -16.14544 3.23418 0.4730531 -26.85472 12.20748 85.34742 23.84195 -8.381249 -0 0 25.32236 -23.63292 10.66243 12.25352 4.826702 -21.94912 -7.14837 -93.87744 7.037292 31.59793 0 0 -1.163935 11.8968 12.93731 -3.439001
-143.0611 112.8414 -196.4237 4.555143 -7.34299 32.48295 3.635387 12.99284 -1.247137 -0 16.3405 -0 -12.88685 -7.341502 0.6086813 2.238013 -17.18395 -4.918204 -0 13.32012 -0 0.38179 -2.391949 17.34206 0.34764 -1.410344 7.266503 -0.487 13.56761 -4.754856 0.3329158 20.85299 4.713571 4.454294 -16.14544 3.23418 0.4730531 -26.85472 12.20748 85.34742 23.84195 -8.381249 -0 0 25.32236 -23.63292 10.66243 12.25352 4.826702 -21.94912 -7.14837 -93.87744 7.037292 31.59793 0 0 -1.163935 11.8968 12.93731 -3.439001
-138.7981 112.8222 -191.9636 4.470095 -7.394892 31.81985 3.635387 12.99284 -1.247137 -0 16.3405 -0 -12.88685 -7.341502 0.6086813 2.238013 -17.18395 -4.918204 -0 13.32012 -0 0.38179 -2.391949 17.34206 0.34764 -1.410344 7.266503 -0.487 13.56761 -4.754856 0.3329158 20.85299 4.713571 4.454294 -16.14544 3.23418 0.4730531 -26.85472 12.20748 85.34742 23.84195 -8.381249 -0 0 25.32236 -23.63292 10.66243 12.25352 4.826702 -21.94912 -7.14837 -93.87744 7.037292 31.59793 0 0 -1.163935 11.8968 12.93731 -3.439001
-134.5867 112.8031 -187.4547 4.384436 -7.445815 31.1566 3.635387 12.99284 -1.247137 -0 16.3405 -0 -12.88685 -7.341502 0.6086813 2.238013 -17.18395 -4.918204 -0 13.32012 -0 0.38179 -2.391949 17.34206 0.34764 -1.410344 7.266503 -0.487 13.56761 -4.754856 0.3329158 20.85299 4.713571 4.454294 -16.14544 3.23418 0.4730531 -26.85472 12.20748 85.34742 23.84195 -8.381249 -0 0 25.32236 -23.63292 10.66243 12.25352 4.826702 -21.94912 -7.14837 -93.87744 7.037292 31.59793 0 0 -1.163935 11.8968 12.93731 -3.439001
-130.4275 112.7839 -182.8977 4.298179 -7.495751 30.49319 3.635387 12.99284 -1.247137 -0 16.3405 -0 -12.88685 -7.341502 0.6086813 2.238013 -17.18395 -4.918204 -0 13.32012 -0 0.38179 -2.391949 17.34206 0.34764 -1.410344 7.266503 -0.487 13.56761 -4.754856 0.3329158 20.85299 4.713571 4.454294 -16.14544 3.23418 0.4730531 -26.85472 12.20748 85.34742 23.84195 -8.381249 -0 0 25.32236 -23.63292 10.66243 12.25352 4.826702 -21.94912 -7.14837 -93.87744 7.037292 31.59793 0 0 -1.163935 11.8968 12.93731 -3.439001
-126.321 112.7647 -178.293 4.211334 -7.544693 29.82964 3.635387 12.99284 -1.247137 -0 16.3405 -0 -12.88685 -7.341502 0.6086813 2.238013 -17.18395 -4.918204 -0 13.32012 -0 0.38179 -2.391949 17.34206 0.34764 -1.410344 7.266503 -0.487 13.56761 -4.754856 0.3329158 20.85299 4.713571 4.454294 -16.14544 3.23418 0.4730531 -26.85472 12.20748 85.34742 23.84195 -8.381249 -0 0 25.32236 -23.63292 10.66243 12.25352 4.826702 -21.94912 -7.14837 -93.87744 7.037292 31.59793 0 0 -1.163935 11.8968 12.93731 -3.439001
-122.2678 112.7456 -173.6414 4.123914 -7.592634 29.16593 3.635387 12.99284 -1.247137 -0 16.3405 -0 -12.88685 -7.341502 0.6086813 2.238013 -17.18395 -4.918204 -0 13.32012 -0 0.38179 -2.391949 17.34206 0.34764 -1.410344 7.266503 -0.487 13.56761 -4.754856 0.3329158 20.85299 4.713571 4.454294 -16.14544 3.23418 0.4730531 -26.85472 12.20748 85.34742 23.84195 -8.381249 -0 0 25.32236 -23.63292 10.66243 12.25352 4.826702 -21.94912 -7.14837 -93.87744 7.037292 31.59793 0 0 -1.163935 11.8968 12.93731 -3.439001
-118.2684 112.7264 -168.9435 4.035929 -7.639569 28.50208 3.635387 12.99284 -1.247137 -0 16.3405 -0 -12.88685 -7.341502 0.6086813 2.238013 -17.18395 -4.918204 -0 13.32012 -0 0.38179 -2.391949 17.34206 0.34764 -1.410344 7.266503 -0.487 13.56761 -4.754856 0.3329158 20.85299 4.713571 4.454294 -16.14544 3.23418 0.4730531 -26.85472 12.20748 85.34742 23.84195 -8.381249 -0 0 25.32236 -23.63292 10.66243 12.25352 4.826702 -21.94912 -7.14837 -93.87744 7.037292 31.59793 0 0 -1.163935 11.8968 12.93731 -3.439001
